HIERARCHY
ROOT Hips
{
	OFFSET 2.108877 85.843872 6.433784
	CHANNELS 6 Xposition Yposition Zposition Zrotation Yrotation Xrotation 
	JOINT Spine
	{
		OFFSET -0.000000 8.814246 -2.080107
		CHANNELS 3 Zrotation Yrotation Xrotation
		JOINT Spine1
		{
			OFFSET 0.000000 8.844141 0.000000
			CHANNELS 3 Zrotation Yrotation Xrotation
			JOINT Spine2
			{
				OFFSET 0.000000 11.682268 -0.000000
				CHANNELS 3 Zrotation Yrotation Xrotation
				JOINT Spine3
				{
					OFFSET 0.000000 11.746700 0.000000
					CHANNELS 3 Zrotation Yrotation Xrotation
					JOINT Neck
					{
						OFFSET 0.000000 17.658264 -0.000000
						CHANNELS 3 Zrotation Yrotation Xrotation
						JOINT Neck1
						{
							OFFSET 0.000000 5.101515 -0.000000
							CHANNELS 3 Zrotation Yrotation Xrotation
							JOINT Head
							{
								OFFSET -0.000000 5.101515 0.000000
								CHANNELS 3 Zrotation Yrotation Xrotation
								JOINT HeadEnd
								{
									OFFSET 0.000000 11.655085 -0.000000
									CHANNELS 3 Zrotation Yrotation Xrotation
									End Site
									{
										OFFSET 0.000000 0.000000 0.000000
									}
								}
							}
						}
					}
					JOINT RightShoulder
					{
						OFFSET -2.625389 11.175210 -0.000000
						CHANNELS 3 Zrotation Yrotation Xrotation
						JOINT RightArm
						{
							OFFSET -0.000000 10.434715 0.000000
							CHANNELS 3 Zrotation Yrotation Xrotation
							JOINT RightForeArm
							{
								OFFSET -0.000000 29.628420 -0.000000
								CHANNELS 3 Zrotation Yrotation Xrotation
								JOINT RightHand
								{
									OFFSET -0.000000 22.857611 0.000000
									CHANNELS 3 Zrotation Yrotation Xrotation
									JOINT RightHandThumb1
									{
										OFFSET -2.867323 3.959563 2.944291
										CHANNELS 3 Zrotation Yrotation Xrotation
										JOINT RightHandThumb2
										{
											OFFSET -0.000000 3.350399 0.000000
											CHANNELS 3 Zrotation Yrotation Xrotation
											JOINT RightHandThumb3
											{
												OFFSET -0.000000 3.756509 0.000000
												CHANNELS 3 Zrotation Yrotation Xrotation
												JOINT RightHandThumb4
												{
													OFFSET 0.000000 3.147345 0.000000
													CHANNELS 3 Zrotation Yrotation Xrotation
													End Site
													{
														OFFSET 0.000000 0.000000 0.000000
													}
												}
											}
										}
									}
									JOINT RightHandIndex1
									{
										OFFSET -0.086752 10.030893 2.345280
										CHANNELS 3 Zrotation Yrotation Xrotation
										JOINT RightHandIndex2
										{
											OFFSET -0.000000 4.061090 0.000000
											CHANNELS 3 Zrotation Yrotation Xrotation
											JOINT RightHandIndex3
											{
												OFFSET 0.000000 3.248873 -0.000000
												CHANNELS 3 Zrotation Yrotation Xrotation
												JOINT RightHandIndex4
												{
													OFFSET 0.000000 2.639709 -0.000000
													CHANNELS 3 Zrotation Yrotation Xrotation
													End Site
													{
														OFFSET 0.000000 0.000000 0.000000
													}
												}
											}
										}
									}
									JOINT RightHandMiddle1
									{
										OFFSET 0.104102 9.502952 0.006768
										CHANNELS 3 Zrotation Yrotation Xrotation
										JOINT RightHandMiddle2
										{
											OFFSET 0.000000 4.568727 -0.000000
											CHANNELS 3 Zrotation Yrotation Xrotation
											JOINT RightHandMiddle3
											{
												OFFSET -0.000000 3.654981 0.000000
												CHANNELS 3 Zrotation Yrotation Xrotation
												JOINT RightHandMiddle4
												{
													OFFSET -0.000000 2.741236 0.000000
													CHANNELS 3 Zrotation Yrotation Xrotation
													End Site
													{
														OFFSET 0.000000 0.000000 0.000000
													}
												}
											}
										}
									}
									JOINT RightHandRing1
									{
										OFFSET 0.086752 8.921708 -2.267442
										CHANNELS 3 Zrotation Yrotation Xrotation
										JOINT RightHandRing2
										{
											OFFSET 0.000000 4.061090 0.000000
											CHANNELS 3 Zrotation Yrotation Xrotation
											JOINT RightHandRing3
											{
												OFFSET -0.000000 3.654981 0.000000
												CHANNELS 3 Zrotation Yrotation Xrotation
												JOINT RightHandRing4
												{
													OFFSET -0.000000 2.741236 0.000000
													CHANNELS 3 Zrotation Yrotation Xrotation
													End Site
													{
														OFFSET 0.000000 0.000000 0.000000
													}
												}
											}
										}
									}
									JOINT RightHandPinky1
									{
										OFFSET -0.173504 7.976997 -4.467199
										CHANNELS 3 Zrotation Yrotation Xrotation
										JOINT RightHandPinky2
										{
											OFFSET -0.000000 3.350399 0.000000
											CHANNELS 3 Zrotation Yrotation Xrotation
											JOINT RightHandPinky3
											{
												OFFSET 0.000000 2.842763 -0.000000
												CHANNELS 3 Zrotation Yrotation Xrotation
												JOINT RightHandPinky4
												{
													OFFSET -0.000000 2.639709 0.000000
													CHANNELS 3 Zrotation Yrotation Xrotation
													End Site
													{
														OFFSET 0.000000 0.000000 0.000000
													}
												}
											}
										}
									}
									JOINT RightForeArmEnd
									{
										OFFSET 0.000000 0.000000 0.000000
										CHANNELS 3 Zrotation Yrotation Xrotation
										End Site
										{
											OFFSET 0.000000 0.000000 0.000000
										}
									}
								}
								JOINT RightArmEnd
								{
									OFFSET 0.000000 0.000000 0.000000
									CHANNELS 3 Zrotation Yrotation Xrotation
									End Site
									{
										OFFSET 0.000000 0.000000 0.000000
									}
								}
							}
						}
					}
					JOINT LeftShoulder
					{
						OFFSET 2.625389 11.175210 -0.000000
						CHANNELS 3 Zrotation Yrotation Xrotation
						JOINT LeftArm
						{
							OFFSET 0.000000 10.813635 0.000000
							CHANNELS 3 Zrotation Yrotation Xrotation
							JOINT LeftForeArm
							{
								OFFSET 0.000000 28.724781 -0.000000
								CHANNELS 3 Zrotation Yrotation Xrotation
								JOINT LeftHand
								{
									OFFSET 0.644384 25.716167 -0.328871
									CHANNELS 3 Zrotation Yrotation Xrotation
									JOINT LeftHandThumb1
									{
										OFFSET 2.867323 3.959563 2.944291
										CHANNELS 3 Zrotation Yrotation Xrotation
										JOINT LeftHandThumb2
										{
											OFFSET -0.000000 3.350399 -0.000000
											CHANNELS 3 Zrotation Yrotation Xrotation
											JOINT LeftHandThumb3
											{
												OFFSET 0.000000 3.756509 0.000000
												CHANNELS 3 Zrotation Yrotation Xrotation
												JOINT LeftHandThumb4
												{
													OFFSET -0.000000 3.100000 -0.000000
													CHANNELS 3 Zrotation Yrotation Xrotation
													End Site
													{
														OFFSET 0.000000 0.000000 0.000000
													}
												}
											}
										}
									}
									JOINT LeftHandIndex1
									{
										OFFSET 0.086752 10.030893 2.345280
										CHANNELS 3 Zrotation Yrotation Xrotation
										JOINT LeftHandIndex2
										{
											OFFSET 0.000000 4.061090 -0.000000
											CHANNELS 3 Zrotation Yrotation Xrotation
											JOINT LeftHandIndex3
											{
												OFFSET 0.000000 3.248873 0.000000
												CHANNELS 3 Zrotation Yrotation Xrotation
												JOINT LeftHandIndex4
												{
													OFFSET -0.000000 2.639709 -0.000000
													CHANNELS 3 Zrotation Yrotation Xrotation
													End Site
													{
														OFFSET 0.000000 0.000000 0.000000
													}
												}
											}
										}
									}
									JOINT LeftHandMiddle1
									{
										OFFSET -0.104102 9.502952 0.006768
										CHANNELS 3 Zrotation Yrotation Xrotation
										JOINT LeftHandMiddle2
										{
											OFFSET 0.000000 4.568727 0.000000
											CHANNELS 3 Zrotation Yrotation Xrotation
											JOINT LeftHandMiddle3
											{
												OFFSET -0.000000 3.654981 -0.000000
												CHANNELS 3 Zrotation Yrotation Xrotation
												JOINT LeftHandMiddle4
												{
													OFFSET 0.000000 2.741236 -0.000000
													CHANNELS 3 Zrotation Yrotation Xrotation
													End Site
													{
														OFFSET 0.000000 0.000000 0.000000
													}
												}
											}
										}
									}
									JOINT LeftHandRing1
									{
										OFFSET -0.086752 8.921708 -2.267442
										CHANNELS 3 Zrotation Yrotation Xrotation
										JOINT LeftHandRing2
										{
											OFFSET 0.000000 4.061090 0.000000
											CHANNELS 3 Zrotation Yrotation Xrotation
											JOINT LeftHandRing3
											{
												OFFSET -0.000000 3.654981 -0.000000
												CHANNELS 3 Zrotation Yrotation Xrotation
												JOINT LeftHandRing4
												{
													OFFSET 0.000000 2.741236 0.000000
													CHANNELS 3 Zrotation Yrotation Xrotation
													End Site
													{
														OFFSET 0.000000 0.000000 0.000000
													}
												}
											}
										}
									}
									JOINT LeftHandPinky1
									{
										OFFSET 0.173504 7.976997 -4.467199
										CHANNELS 3 Zrotation Yrotation Xrotation
										JOINT LeftHandPinky2
										{
											OFFSET 0.000000 3.350399 0.000000
											CHANNELS 3 Zrotation Yrotation Xrotation
											JOINT LeftHandPinky3
											{
												OFFSET -0.000000 2.842763 -0.000000
												CHANNELS 3 Zrotation Yrotation Xrotation
												JOINT LeftHandPinky4
												{
													OFFSET -0.000000 2.639709 0.000000
													CHANNELS 3 Zrotation Yrotation Xrotation
													End Site
													{
														OFFSET 0.000000 0.000000 0.000000
													}
												}
											}
										}
									}
									JOINT LeftForeArmEnd
									{
										OFFSET 0.000000 0.000000 0.000000
										CHANNELS 3 Zrotation Yrotation Xrotation
										End Site
										{
											OFFSET 0.000000 0.000000 0.000000
										}
									}
								}
								JOINT LeftArmEnd
								{
									OFFSET 0.000000 0.000000 0.000000
									CHANNELS 3 Zrotation Yrotation Xrotation
									End Site
									{
										OFFSET 0.000000 0.000000 0.000000
									}
								}
							}
						}
					}
				}
			}
		}
	}
	JOINT RightUpLeg
	{
		OFFSET -11.289943 -0.000000 -0.000000
		CHANNELS 3 Zrotation Yrotation Xrotation
		JOINT RightLeg
		{
			OFFSET 0.000000 -38.200325 -0.000000
			CHANNELS 3 Zrotation Yrotation Xrotation
			JOINT RightFoot
			{
				OFFSET -0.000000 -39.900856 0.000000
				CHANNELS 3 Zrotation Yrotation Xrotation
				JOINT RightToeBase
				{
					OFFSET 0.000000 -0.000000 15.261641
					CHANNELS 3 Zrotation Yrotation Xrotation
					JOINT RightToeBaseEnd
					{
						OFFSET 0.000000 -0.000000 7.370709
						CHANNELS 3 Zrotation Yrotation Xrotation
						End Site
						{
							OFFSET 0.000000 0.000000 0.000000
						}
					}
				}
				JOINT RightLegEnd
				{
					OFFSET 0.000000 0.000000 0.000000
					CHANNELS 3 Zrotation Yrotation Xrotation
					End Site
					{
						OFFSET 0.000000 0.000000 0.000000
					}
				}
			}
			JOINT RightUpLegEnd
			{
				OFFSET 0.000000 0.000000 0.000000
				CHANNELS 3 Zrotation Yrotation Xrotation
				End Site
				{
					OFFSET 0.000000 0.000000 0.000000
				}
			}
		}
	}
	JOINT LeftUpLeg
	{
		OFFSET 11.315661 0.000000 0.000000
		CHANNELS 3 Zrotation Yrotation Xrotation
		JOINT LeftLeg
		{
			OFFSET 0.000000 -38.200325 -0.000000
			CHANNELS 3 Zrotation Yrotation Xrotation
			JOINT LeftFoot
			{
				OFFSET 0.000000 -39.900856 0.000000
				CHANNELS 3 Zrotation Yrotation Xrotation
				JOINT LeftToeBase
				{
					OFFSET -0.000000 0.000000 15.261641
					CHANNELS 3 Zrotation Yrotation Xrotation
					JOINT LeftToeBaseEnd
					{
						OFFSET 0.000000 -0.000000 7.539996
						CHANNELS 3 Zrotation Yrotation Xrotation
						End Site
						{
							OFFSET 0.000000 0.000000 0.000000
						}
					}
				}
				JOINT LeftLegEnd
				{
					OFFSET 0.000000 0.000000 0.000000
					CHANNELS 3 Zrotation Yrotation Xrotation
					End Site
					{
						OFFSET 0.000000 0.000000 0.000000
					}
				}
			}
			JOINT LeftUpLegEnd
			{
				OFFSET 0.000000 0.000000 0.000000
				CHANNELS 3 Zrotation Yrotation Xrotation
				End Site
				{
					OFFSET 0.000000 0.000000 0.000000
				}
			}
		}
	}
}
MOTION
Frames: 4
Frame Time: 0.016667
-20.084002 86.175117 26.355520 -3.107533 9.573359 -21.807562 0.982987 -0.528155 10.643447 1.165732 -0.457300 3.316292 3.802130 -1.725824 14.744039 2.309573 -0.264950 5.928726 -2.226044 -0.404576 8.810506 -0.491663 -1.116349 -2.261103 -0.307973 0.566033 -21.833513 0.000000 0.000000 0.000000 95.253181 -0.903505 9.647838 54.576958 -21.367762 10.249820 0.857842 12.002148 24.031618 5.062517 27.211618 -5.706087 11.954720 -1.892080 39.298733 -0.000004 0.000008 -29.407507 -0.000009 0.000047 -20.535883 0.000021 -0.000009 0.000008 19.566362 17.139671 -11.946923 15.430431 -0.232751 -4.260642 15.416098 0.727002 -3.967271 -0.000027 -0.000008 -0.000007 19.903257 7.077083 -11.039242 15.053975 -0.690550 -1.689478 14.834091 0.258623 -1.424688 0.000029 0.000027 0.000002 23.100967 -9.034385 -8.958304 15.649218 1.544979 2.390240 15.437499 -0.350604 1.837652 -0.000007 -0.000801 0.000032 25.320587 -25.416264 -8.765175 13.650480 2.719022 6.664513 13.788310 -1.079016 5.598081 0.000074 0.000010 -0.000010 0.000000 0.000000 0.000000 0.000000 0.000000 0.000000 -93.581604 0.218626 12.662402 -60.082386 31.213263 8.606034 -1.810375 -16.673222 35.911957 -8.790741 -13.931749 -7.618982 -12.243771 1.970068 39.154579 -0.000001 0.000013 -29.838243 0.000043 0.000001 -20.690458 0.001974 -0.000016 -0.001305 -26.548567 16.850386 -8.488695 -16.245085 -0.304378 4.379820 -16.314724 0.670907 4.069766 0.000035 0.001199 -0.000009 -22.385523 6.979485 -8.839992 -15.223407 -0.725349 1.685470 -14.947721 0.219175 1.429752 0.000190 -0.000035 -0.000152 -18.079418 -8.829473 -7.493393 -13.203631 1.607720 -2.205322 -13.235767 -0.267000 -1.695797 -0.000769 0.000011 -0.000001 -12.541312 -24.937944 -9.288280 -9.897093 3.016223 -5.771471 -10.087432 -0.766450 -4.917162 0.000025 -0.000012 -0.000014 0.000000 0.000000 0.000000 0.000000 0.000000 0.000000 0.672286 -1.031010 18.780003 -0.204407 -0.744115 16.077375 0.584366 -15.633512 10.952463 -1.027867 1.376118 -17.159670 0.000000 0.000000 0.000000 0.000000 0.000000 0.000000 0.000000 0.000000 0.000000 18.667984 0.376010 17.545689 0.605236 1.686575 21.902956 -12.398105 5.250046 11.079016 1.415380 -1.862705 -17.191170 0.000000 0.000000 0.000000 0.000000 0.000000 0.000000 0.000000 0.000000 0.000000 
-19.588614 86.172089 26.394604 -2.988618 9.649815 -21.880110 0.836257 -0.501843 10.653421 1.138369 -0.457845 3.289528 3.737459 -1.679243 14.802643 2.319685 -0.255447 5.930669 -2.230867 -0.349356 8.916599 -0.450693 -1.087767 -2.230971 -0.268402 0.579178 -21.889921 0.000000 0.000000 0.000000 95.290466 -0.896822 9.623265 54.841450 -21.379107 10.159204 0.864038 11.981020 23.855078 5.159093 27.500475 -5.507967 11.914391 -1.889684 39.317394 -0.000004 0.000007 -29.289875 -0.000009 0.000047 -20.461479 0.000021 -0.000009 0.000008 19.232462 17.153641 -12.006565 15.271202 -0.246749 -4.230515 15.256591 0.713839 -3.940811 -0.000027 -0.000008 -0.000007 19.668215 7.076734 -11.107650 14.915333 -0.695497 -1.679430 14.700027 0.254814 -1.416887 0.000030 0.000026 0.000002 22.990730 -9.028906 -9.021616 15.576724 1.551300 2.381600 15.360578 -0.345993 1.831365 -0.000007 -0.000678 0.000033 25.326134 -25.415722 -8.843503 13.628875 2.735726 6.651277 13.770348 -1.064949 5.586507 0.000059 0.000009 -0.000012 0.000000 0.000000 0.000000 0.000000 0.000000 0.000000 -93.544449 0.192274 12.624999 -59.890873 31.084982 8.520788 -1.830897 -16.725431 35.948948 -8.466931 -14.481293 -7.533148 -12.247410 1.968691 39.156368 -0.000001 0.000013 -29.834145 0.000043 0.000002 -20.684464 0.001982 -0.000016 -0.001350 -26.497749 16.864391 -8.416392 -16.242699 -0.309319 4.377039 -16.318214 0.666235 4.069819 0.000034 0.001142 -0.000009 -22.355621 6.981601 -8.772159 -15.230330 -0.727147 1.685601 -14.951198 0.217774 1.429896 0.000198 -0.000035 -0.000153 -18.081276 -8.826915 -7.403253 -13.223810 1.610313 -2.203845 -13.255580 -0.265065 -1.695732 -0.000795 0.000011 -0.000001 -12.595114 -24.928354 -9.212054 -9.927506 3.024272 -5.772583 -10.104060 -0.760259 -4.918787 0.000009 -0.000013 -0.000014 0.000000 0.000000 0.000000 0.000000 0.000000 0.000000 0.127121 -0.920392 18.961294 -0.215912 -0.773037 16.152082 1.020284 -15.552942 10.834159 -1.077618 1.385678 -17.159723 0.000000 0.000000 0.000000 0.000000 0.000000 0.000000 0.000000 0.000000 0.000000 18.214045 0.370109 17.846865 0.596671 1.670927 21.582148 -12.115541 5.154336 10.880180 1.398518 -1.878510 -17.039713 0.000000 0.000000 0.000000 0.000000 0.000000 0.000000 0.000000 0.000000 0.000000 
-19.086157 86.171890 26.426235 -2.847307 9.708442 -21.935894 0.679061 -0.471223 10.660464 1.107738 -0.456123 3.259727 3.660766 -1.619575 14.859291 2.325874 -0.244900 5.926557 -2.250939 -0.289781 9.022357 -0.411714 -1.057780 -2.204071 -0.227766 0.594859 -21.951233 0.000000 0.000000 0.000000 95.318962 -0.886452 9.601834 55.134136 -21.347807 10.069745 0.869691 11.982358 23.703157 5.262691 27.789122 -5.285837 11.881571 -1.887486 39.333111 -0.000003 0.000006 -29.189642 -0.000008 0.000047 -20.399504 0.000020 -0.000008 0.000008 18.942612 17.167452 -12.053149 15.128834 -0.259604 -4.203566 15.113082 0.701872 -3.917292 -0.000027 -0.000008 -0.000006 19.474604 7.076914 -11.163972 14.795603 -0.700050 -1.670862 14.584690 0.251431 -1.410316 0.000031 0.000025 0.000003 22.913488 -9.025263 -9.077231 15.525733 1.556965 2.374793 15.304761 -0.341977 1.826502 -0.000008 -0.000536 0.000033 25.356432 -25.420666 -8.915532 13.626995 2.750599 6.643085 13.771634 -1.052877 5.579413 0.000045 0.000009 -0.000014 0.000000 0.000000 0.000000 0.000000 0.000000 0.000000 -93.506050 0.167267 12.578192 -59.704113 30.911318 8.423801 -1.850334 -16.790432 36.003174 -8.145452 -15.006898 -7.418831 -12.255160 1.968010 39.155926 -0.000001 0.000013 -29.838089 0.000044 0.000002 -20.685427 0.001988 -0.000016 -0.001390 -26.470068 16.872549 -8.332377 -16.238609 -0.314075 4.374656 -16.320166 0.661757 4.070339 0.000034 0.001080 -0.000009 -22.350178 6.981796 -8.696305 -15.236474 -0.728893 1.686045 -14.954560 0.216456 1.430237 0.000209 -0.000035 -0.000154 -18.106535 -8.822697 -7.310139 -13.243748 1.612787 -2.202643 -13.275018 -0.263288 -1.695965 -0.000795 0.000011 -0.000001 -12.676222 -24.915319 -9.129110 -9.957574 3.031872 -5.774617 -10.120889 -0.754472 -4.921189 -0.000004 -0.000013 -0.000014 0.000000 0.000000 0.000000 0.000000 0.000000 0.000000 -0.442727 -0.798962 19.124857 -0.227328 -0.801839 16.234085 1.458745 -15.461990 10.722130 -1.126821 1.394213 -17.162899 0.000000 0.000000 0.000000 0.000000 0.000000 0.000000 0.000000 0.000000 0.000000 17.726967 0.398320 18.154465 0.587206 1.654140 21.246830 -11.817263 5.100152 10.701004 1.381429 -1.892523 -16.891275 0.000000 0.000000 0.000000 0.000000 0.000000 0.000000 0.000000 0.000000 0.000000 
-18.577995 86.174088 26.449278 -2.683752 9.744212 -21.974094 0.512073 -0.436897 10.663966 1.075724 -0.452407 3.228754 3.571142 -1.545249 14.911099 2.326382 -0.232978 5.920124 -2.287971 -0.224689 9.129163 -0.375173 -1.026508 -2.177196 -0.186103 0.612987 -22.015606 0.000000 0.000000 0.000000 95.337837 -0.874243 9.586517 55.436138 -21.296791 9.988873 0.873932 11.999292 23.576643 5.367899 28.072809 -5.050988 11.856873 -1.885580 39.345577 -0.000003 0.000006 -29.108366 -0.000008 0.000047 -20.350698 0.000019 -0.000008 0.000008 18.703201 17.181049 -12.088264 15.008313 -0.271042 -4.180660 14.990586 0.691351 -3.897476 -0.000026 -0.000008 -0.000006 19.327381 7.077685 -11.208810 14.699096 -0.704079 -1.664063 14.492335 0.248563 -1.405224 0.000032 0.000024 0.000003 22.875299 -9.023360 -9.124009 15.499254 1.561795 2.370155 15.272905 -0.338691 1.823295 -0.000008 -0.000385 0.000034 25.415972 -25.430248 -8.977796 13.646603 2.763124 6.640680 13.793974 -1.043166 5.577458 0.000031 0.000009 -0.000015 0.000000 0.000000 0.000000 0.000000 0.000000 0.000000 -93.466873 0.144439 12.524137 -59.505875 30.706650 8.320540 -1.869083 -16.864241 36.074623 -7.837668 -15.487268 -7.290756 -12.268581 1.968210 39.152580 -0.000001 0.000012 -29.853884 0.000044 0.000003 -20.695719 0.001993 -0.000016 -0.001423 -26.472778 16.874592 -8.246758 -16.236828 -0.318506 4.372853 -16.324610 0.657561 4.071506 0.000033 0.001015 -0.000009 -22.374439 6.980169 -8.620336 -15.245069 -0.730526 1.686842 -14.961175 0.215263 1.430867 0.000224 -0.000035 -0.000154 -18.156340 -8.817305 -7.219918 -13.265379 1.615076 -2.201983 -13.296489 -0.261728 -1.696679 -0.000770 0.000011 -0.000002 -12.781599 -24.900124 -9.042599 -9.987732 3.038919 -5.778022 -10.138784 -0.749188 -4.924912 -0.000016 -0.000014 -0.000013 0.000000 0.000000 0.000000 0.000000 0.000000 0.000000 -1.037728 -0.668729 19.266119 -0.238766 -0.830846 16.324980 1.896931 -15.353911 10.618353 -1.175277 1.402028 -17.168638 0.000000 0.000000 0.000000 0.000000 0.000000 0.000000 0.000000 0.000000 0.000000 17.208145 0.463391 18.468227 0.576946 1.636607 20.896461 -11.505611 5.088082 10.539199 1.364015 -1.904873 -16.745426 0.000000 0.000000 0.000000 0.000000 0.000000 0.000000 0.000000 0.000000 0.000000 
